# xmcd
#
# Track frame offsets: 
#        150
#        12390
#        28087
#        46400
#        63087
#        78825
#        91800
#        107720
#        125635
#        146922
#        171070
#        187420
#        215750
#        238810
#        249995
#        262427
#        279010
#
# Disc length: 3970 seconds
#
# Revision: 0
# Processed by: cddbd v1.5.2PL0 Copyright (c) Steve Scherf et al.
# Submitted via: ExactAudioCopy v0.95a3
#
DISCID=fb0f8011
DTITLE=Chairman of the Board - Any other buisness CD1
DYEAR=1999
DGENRE=R&B
TTITLE0=Chairman of the Board /Let me down easy
TTITLE1=Chairman of the Board - Try on my love for size
TTITLE2=Chairman of the Board - Everybody's got a song to sing
TTITLE3=Chairman of the Board - Finders keeper (Instr.)
TTITLE4=Chairman of the Board - You've got extra added power in your l
TTITLE4=ove
TTITLE5=Chairman of the Board - Someone just like you
TTITLE6=Chairman of the Board - Come on in and ance
TTITLE7=General Johnson - God's gift to man
TTITLE8=General Johnson - Every couple's not a  pair
TTITLE9=General Johnson - I never get tired of you
TTITLE10=General Johnson - My credit didn't go through
TTITLE11=General Johnson - Things are bound to get better later on
TTITLE12=General Johnson - Mary Lou Thomas
TTITLE13=General Johnson - Savannah Lady
TTITLE14=General Johnson - I'm in love darling
TTITLE15=General Johnson - Only time will tell
TTITLE16=General Johnson - Only time will tell (Instr.)
EXTD=
EXTT0=
EXTT1=
EXTT2=
EXTT3=
EXTT4=
EXTT5=
EXTT6=
EXTT7=
EXTT8=
EXTT9=
EXTT10=
EXTT11=
EXTT12=
EXTT13=
EXTT14=
EXTT15=
EXTT16=
PLAYORDER=
